<?xml version="1.0" standalone="no"?><!DOCTYPE svg PUBLIC "-//W3C//DTD SVG 1.1//EN" "http://www.w3.org/Graphics/SVG/1.1/DTD/svg11.dtd"><svg t="1697358075092" class="icon" viewBox="0 0 1024 1024" version="1.1" xmlns="http://www.w3.org/2000/svg" p-id="5972" xmlns:xlink="http://www.w3.org/1999/xlink" width="200" height="200"><path d="M443.733333 380.757333l93.866667 74.752a71.168 71.168 0 0 0 43.690667 15.189334h210.432a34.986667 34.986667 0 0 1 34.133333 34.986666v284.672a34.986667 34.986667 0 0 1-34.133333 35.157334H179.2a35.157333 35.157333 0 0 1-35.157333-35.157334V400.554667a34.986667 34.986667 0 0 1 35.157333-34.133334h220.842667a69.290667 69.290667 0 0 1 43.690666 14.336z" fill="#96DDFF" p-id="5973"></path><path d="M179.2 365.568h220.842667a69.290667 69.290667 0 0 1 43.52 15.189333l93.866666 74.752a71.168 71.168 0 0 0 43.690667 15.189334h190.976l-14.677333-279.04a17.066667 17.066667 0 0 0-17.92-16.042667L153.6 206.336a17.066667 17.066667 0 0 0-17.066667 17.92l8.874667 167.082667a34.133333 34.133333 0 0 1 33.792-25.770667z" fill="#FFF3DB" p-id="5974"></path><path d="M400.042667 365.568a69.290667 69.290667 0 0 1 43.52 15.189333l93.866666 74.752a71.168 71.168 0 0 0 43.690667 15.189334H785.066667l11.946666-136.533334-585.216-51.2-6.997333 82.602667z" fill="#FFF6E6" p-id="5975"></path><path d="M581.12 470.698667h131.754667l6.656-75.776-162.986667-14.165334-7.168 82.090667a70.485333 70.485333 0 0 0 31.744 7.850667z" fill="#F6716F" p-id="5976"></path><path d="M353.28 728.405333c-65.194667-2.389333-148.48-5.973333-209.237333-11.605333v73.045333a35.157333 35.157333 0 0 0 35.157333 35.157334h612.522667a34.986667 34.986667 0 0 0 34.133333-35.157334V554.666667l-286.378667 135.509333a405.504 405.504 0 0 1-186.197333 38.229333z" fill="#69BAF9" p-id="5977"></path><path d="M925.354667 584.874667l-337.578667 155.306666 281.429333 103.253334 56.149334-258.56z" fill="#EDF4FF" p-id="5978"></path><path d="M717.653333 787.797333v89.088l86.186667-57.344-86.186667-31.744z" fill="#D8E3F0" p-id="5979"></path><path d="M394.410667 714.24h-153.6a17.066667 17.066667 0 1 0 0 34.133333h153.6a17.066667 17.066667 0 1 0 0-34.133333zM240.298667 684.544h87.381333a17.066667 17.066667 0 1 0 0-34.133333h-87.381333a17.066667 17.066667 0 1 0 0 34.133333z" fill="#3D3D63" p-id="5980"></path><path d="M936.106667 571.562667a17.066667 17.066667 0 0 0-17.92-2.218667l-74.410667 34.133333v-97.792a52.224 52.224 0 0 0-40.96-51.2l10.410667-118.442666a17.066667 17.066667 0 0 0-3.925334-12.458667 17.066667 17.066667 0 0 0-11.605333-5.973333l-34.133333-3.072-6.485334-123.221334a17.066667 17.066667 0 0 0-17.92-16.042666L153.6 206.336a17.066667 17.066667 0 0 0-17.066667 17.92l4.778667 89.770667a17.066667 17.066667 0 0 0 17.92 16.042666 17.066667 17.066667 0 0 0 16.213333-17.92L171.690667 238.933333l552.618666-29.013333 5.290667 102.4-516.949333-45.568a17.066667 17.066667 0 0 0-18.602667 15.530667L187.733333 348.501333h-8.533333a52.224 52.224 0 0 0-52.224 51.2v390.656a52.224 52.224 0 0 0 52.224 52.224h521.386667v34.133334a17.066667 17.066667 0 0 0 17.066666 17.066666 17.066667 17.066667 0 0 0 9.557334-2.901333l79.018666-52.565333 57.002667 20.992a17.066667 17.066667 0 0 0 14.165333-1.024 17.066667 17.066667 0 0 0 8.362667-11.264l56.32-258.730667a17.066667 17.066667 0 0 0-5.973333-16.725333zM713.557333 768l-81.066666-29.866667 210.432-96.768zM226.645333 302.250667l551.082667 48.128-9.045333 102.4h-37.205334l4.949334-57.173334a17.066667 17.066667 0 0 0-15.530667-18.432l-162.816-14.336a17.066667 17.066667 0 0 0-18.602667 15.530667l-4.608 52.394667-80.554666-64.170667a87.04 87.04 0 0 0-54.272-18.944H221.866667z m470.528 151.381333h-116.053333a52.906667 52.906667 0 0 1-13.653333-2.048l4.608-52.394667 128.853333 11.264zM179.2 808.448a18.261333 18.261333 0 0 1-18.090667-18.090667V400.554667a18.090667 18.090667 0 0 1 18.090667-17.066667h220.842667a53.589333 53.589333 0 0 1 32.938666 11.434667l93.866667 74.752a88.064 88.064 0 0 0 54.272 18.944h210.602667a17.066667 17.066667 0 0 1 17.066666 17.92v113.664L580.266667 724.650667a17.066667 17.066667 0 0 0-10.069334 16.213333 17.066667 17.066667 0 0 0 11.264 15.189333l118.613334 43.690667v8.704z m555.52 36.693333V812.373333l31.744 11.605334z m121.856-24.405333l-107.52-39.594667 147.626667-144.213333z" fill="#3D3D63" p-id="5981"></path></svg>